<?xml version="1.0" standalone="no"?>
<!DOCTYPE svg PUBLIC "-//W3C//DTD SVG 20010904//EN" "http://www.w3.org/TR/2001/REC-SVG-20010904/DTD/svg10.dtd">
<!-- Created using Krita: https://krita.org -->
<svg xmlns="http://www.w3.org/2000/svg" 
    xmlns:xlink="http://www.w3.org/1999/xlink"
    xmlns:krita="http://krita.org/namespaces/svg/krita"
    xmlns:sodipodi="http://sodipodi.sourceforge.net/DTD/sodipodi-0.dtd"
    width="766pt"
    height="848pt"
    viewBox="0 0 766 848">
<defs/>
<rect id="shape3" transform="matrix(0.711523449509233 -0.70266235191484 0.70266235191484 0.711523449509233 69.1948991341978 427.580907135591)" fill="#222253" fill-rule="evenodd" stroke-opacity="0" stroke="#000000" stroke-width="0" stroke-linecap="square" stroke-linejoin="bevel" width="434.449743314457" height="434.449743314457"/><path id="shape4" transform="matrix(0.711523449509233 -0.70266235191484 0.70266235191484 0.711523449509233 107.038277886648 428.375568587583)" fill="#829ee1" fill-rule="evenodd" stroke-opacity="0" stroke="#000000" stroke-width="0" stroke-linecap="square" stroke-linejoin="bevel" d="M0 0L382.941 0L382.941 382.941L0 382.941Z" sodipodi:nodetypes="ccccc"/><path id="shape5" transform="translate(261.589662940158, 340.170398311732)" fill="#222253" fill-rule="evenodd" stroke-opacity="0" stroke="#000000" stroke-width="0" stroke-linecap="square" stroke-linejoin="bevel" d="M0 247.134L50.9117 106.83L39.598 106.83L39.598 94.7523L52.3259 94.7523L51.9723 22.2739L21.9203 22.6274L21.5668 0L217.435 0L217.435 21.2132L185.262 21.5668L184.555 94.7523L196.576 95.1059L196.576 106.83L186.676 106.83L235.467 244.659L173.91 306.33L47.9103 305.83L0 247.134" sodipodi:nodetypes="ccccccccccccccccccc"/><rect id="shape7" transform="translate(396.823223300113, 527.823223300113)" fill="#829ee1" fill-rule="evenodd" stroke-opacity="0" stroke="#000000" stroke-width="0" stroke-linecap="square" stroke-linejoin="bevel" width="8" height="77"/><rect id="shape8" transform="translate(387.823223300113, 527.823223300113)" fill="#829ee1" fill-rule="evenodd" stroke-opacity="0" stroke="#000000" stroke-width="0" stroke-linecap="square" stroke-linejoin="bevel" width="5" height="77"/><rect id="shape9" transform="translate(385.823223300113, 527.823223300113)" fill="#829ee1" fill-rule="evenodd" stroke-opacity="0" stroke="#000000" stroke-width="0" stroke-linecap="square" stroke-linejoin="bevel" width="2" height="76"/><rect id="shape10" transform="translate(385.823223300113, 597.823223300113)" fill="#829ee1" fill-rule="evenodd" stroke="#000000" stroke-width="0.5" stroke-linecap="square" stroke-linejoin="bevel" width="4" height="7"/><rect id="shape11" transform="translate(378.823223300113, 448.823223300113)" fill="#829ee1" fill-rule="evenodd" stroke-opacity="0" stroke="#000000" stroke-width="0" stroke-linecap="square" stroke-linejoin="bevel" width="7" height="43"/><rect id="shape12" transform="translate(393, 450)" fill="#000000" fill-rule="evenodd" stroke-opacity="0" stroke="#000000" stroke-width="0" stroke-linecap="square" stroke-linejoin="bevel" width="2" height="42"/><rect id="shape13" transform="translate(393, 450)" fill="#000000" fill-rule="evenodd" stroke-opacity="0" stroke="#000000" stroke-width="0" stroke-linecap="square" stroke-linejoin="bevel" width="23" height="1"/><rect id="shape14" transform="translate(391.823223300113, 449)" fill="#829ee1" fill-rule="evenodd" stroke-opacity="0" stroke="#000000" stroke-width="0" stroke-linecap="square" stroke-linejoin="bevel" width="3" height="43"/><rect id="shape15" transform="translate(392, 449)" fill="#77b3fe" fill-rule="evenodd" stroke-opacity="0" stroke="#000000" stroke-width="0" stroke-linecap="square" stroke-linejoin="bevel" width="24" height="2"/><path id="shape16" transform="translate(393.11151725861, 449.948718003992)" fill="#829ee1" fill-rule="evenodd" stroke-opacity="0" stroke="#000000" stroke-width="0" stroke-linecap="square" stroke-linejoin="bevel" d="M0 0L22.981 0L27.7539 13.9654L0.53033 14.8492Z" sodipodi:nodetypes="ccccc"/><path id="shape17" transform="translate(393.64184732558, 458.964329281415)" fill="#829ee1" fill-rule="evenodd" stroke-opacity="0" stroke="#000000" stroke-width="0" stroke-linecap="square" stroke-linejoin="bevel" d="M1.06066 32.1734C1.73279 23.4192 4.32551 16.8196 8.83883 12.3744C13.3522 7.92915 19.1858 5.2775 26.3397 4.41942L0 0C0 0 0.353553 10.7245 1.06066 32.1734Z" sodipodi:nodetypes="czccc"/><path id="shape18" transform="translate(413.010739734558, 465.437519194909)" fill="#829ee1" fill-rule="evenodd" stroke-opacity="0" stroke="#000000" stroke-width="0" stroke-linecap="square" stroke-linejoin="bevel" d="M0 1.875L6.875 18.8125L7.875 0.1875L7.875 0.1875L4.75 0L2.3125 0.5Z" sodipodi:nodetypes="ccccccc"/><path id="shape19" transform="translate(423.073240124413, 471.500019429791)" fill="#829ee1" fill-rule="evenodd" stroke-opacity="0" stroke="#000000" stroke-width="0" stroke-linecap="square" stroke-linejoin="bevel" d="M4.5 11.75L4.5 11.75L0.375 0L0 12.5625L3.375 12.75Z" sodipodi:nodetypes="cccccc"/><path id="shape20" transform="translate(404.323239397975, 468.250019303875)" fill="#829ee1" fill-rule="evenodd" stroke-opacity="0" stroke="#000000" stroke-width="0" stroke-linecap="square" stroke-linejoin="bevel" d="M6.375 0L13.625 16.125L12.75 17.5625L11.5 17.5625L0 5.0625L2.8125 1.875L2.8125 1.875Z" sodipodi:nodetypes="cccccccc"/><path id="shape21" transform="translate(399.010739192151, 474.875019560549)" fill="#829ee1" fill-rule="evenodd" stroke-opacity="0" stroke="#000000" stroke-width="0" stroke-linecap="square" stroke-linejoin="bevel" d="M13.9375 12.125L3.625 0L1.25 2.5L0 6.375L12.75 13.25Z" sodipodi:nodetypes="cccccc"/><path id="shape22" transform="translate(396.510739095293, 483.187519882603)" fill="#829ee1" fill-rule="evenodd" stroke-opacity="0" stroke="#000000" stroke-width="0" stroke-linecap="square" stroke-linejoin="bevel" d="M14.75 6.5L1.375 0L0 3.1875L0 7.5625L13.875 7.75Z" sodipodi:nodetypes="cccccc"/><rect id="shape23" transform="translate(325, 362)" fill="#77b3fe" fill-rule="evenodd" stroke-opacity="0" stroke="#000000" stroke-width="0" stroke-linecap="square" stroke-linejoin="bevel" width="110" height="19"/><rect id="shape24" transform="translate(378, 363)" fill="#77b3fe" fill-rule="evenodd" stroke-opacity="0" stroke="#000000" stroke-width="0" stroke-linecap="square" stroke-linejoin="bevel" width="7" height="49"/><path id="shape25" transform="translate(380.396462778984, 372.625016627881)" fill="#829ee1" fill-rule="evenodd" stroke-opacity="0" stroke="#000000" stroke-width="0" stroke-linecap="square" stroke-linejoin="bevel" d="M5 38.875C4.70455 34.0777 5.45454 29.9527 7.24998 26.5C9.94315 21.321 14.9701 16.5074 17.375 15C19.7799 13.4926 26.2437 10.8004 30.875 10.75C33.9625 10.7164 39.9823 11.6434 44 13.625C46.6785 14.9461 50.0535 17.4877 54.125 21.25L54.125 6.5L7.24998 0L0 1.625L1.5 38.5C2.33333 38.6667 3.5 38.7917 5 38.875Z" sodipodi:nodetypes="czzzzcccccc"/><path id="shape26" transform="translate(422.646464503204, 410.75001777392)" fill="#829ee1" fill-rule="evenodd" stroke-opacity="0" stroke="#000000" stroke-width="0" stroke-linecap="square" stroke-linejoin="bevel" d="M11.5 0.125L0 0Z" sodipodi:nodetypes="ccc"/><path id="shape27" transform="translate(420.271464348334, 397.500017428043)" fill="#829ee1" fill-rule="evenodd" stroke-opacity="0" stroke="#000000" stroke-width="0" stroke-linecap="square" stroke-linejoin="bevel" d="M0 10.375L12.75 0Z" sodipodi:nodetypes="ccc"/><path id="shape29" transform="translate(418.646464105704, 386.750017144115)" fill="#829ee1" fill-rule="evenodd" stroke-opacity="0" stroke="#000000" stroke-width="0" stroke-linecap="square" stroke-linejoin="bevel" d="M0 0Z" sodipodi:nodetypes="cc"/><path id="shape30" transform="translate(408.146463713367, 401.875017175089)" fill="#829ee1" fill-rule="evenodd" stroke-opacity="0" stroke="#000000" stroke-width="0" stroke-linecap="square" stroke-linejoin="bevel" d="M2.625 0L0 1.25L1.625 1Z" sodipodi:nodetypes="cccc"/><path id="shape31" transform="translate(404.271463393302, 404.250017314472)" fill="#829ee1" fill-rule="evenodd" stroke-opacity="0" stroke="#000000" stroke-width="0" stroke-linecap="square" stroke-linejoin="bevel" d="M2.375 0L0 1.125Z" sodipodi:nodetypes="ccc"/><path id="shape32" transform="translate(401.646463166159, 406.125017546777)" fill="#829ee1" fill-rule="evenodd" stroke-opacity="0" stroke="#000000" stroke-width="0" stroke-linecap="square" stroke-linejoin="bevel" d="M0.875 0L0 2.125Z" sodipodi:nodetypes="ccc"/><path id="shape33" transform="translate(387.646446600226, 403.62501790814)" fill="#829ee1" fill-rule="evenodd" stroke-opacity="0" stroke="#000000" stroke-width="0" stroke-linecap="square" stroke-linejoin="bevel" d="M1.37502 0L0 3.75Z" sodipodi:nodetypes="ccc"/><path id="shape34" transform="matrix(-1 0 0 1 350.073203561058 527.823249478111)" fill="#829ee1" fill-rule="evenodd" stroke-opacity="0" stroke="#000000" stroke-width="0" stroke-linecap="square" stroke-linejoin="bevel" d="M0 0.25L0 76.75L58.75 77.25L33.25 0L0 0.25" sodipodi:nodetypes="ccccc"/><rect id="shape35" transform="matrix(-1 0 0 1 362.823223300113 527.823223300113)" fill="#829ee1" fill-rule="evenodd" stroke-opacity="0" stroke="#000000" stroke-width="0" stroke-linecap="square" stroke-linejoin="bevel" width="8" height="77"/><rect id="shape36" transform="matrix(-1 0 0 1 371.823223300113 527.823223300113)" fill="#829ee1" fill-rule="evenodd" stroke-opacity="0" stroke="#000000" stroke-width="0" stroke-linecap="square" stroke-linejoin="bevel" width="5" height="77"/><rect id="shape37" transform="matrix(-1 0 0 1 374 528)" fill="#829ee1" fill-rule="evenodd" stroke-opacity="0" stroke="#000000" stroke-width="0" stroke-linecap="square" stroke-linejoin="bevel" width="2" height="76"/><rect id="shape38" transform="matrix(-1 0 0 1 373.823223300113 597.823223300113)" fill="#829ee1" fill-rule="evenodd" stroke="#000000" stroke-width="0.5" stroke-linecap="square" stroke-linejoin="bevel" width="4" height="7"/><rect id="shape39" transform="matrix(-1 0 0 1 380.823223300113 449)" fill="#829ee1" fill-rule="evenodd" stroke-opacity="0" stroke="#000000" stroke-width="0" stroke-linecap="square" stroke-linejoin="bevel" width="7" height="43"/><rect id="shape40" transform="matrix(-1 0 0 1 367 450)" fill="#000000" fill-rule="evenodd" stroke-opacity="0" stroke="#000000" stroke-width="0" stroke-linecap="square" stroke-linejoin="bevel" width="2" height="42"/><rect id="shape41" transform="matrix(-1 0 0 1 367 450)" fill="#000000" fill-rule="evenodd" stroke-opacity="0" stroke="#000000" stroke-width="0" stroke-linecap="square" stroke-linejoin="bevel" width="23" height="1"/><rect id="shape42" transform="matrix(-1 0 0 1 368 449)" fill="#829ee1" fill-rule="evenodd" stroke-opacity="0" stroke="#000000" stroke-width="0" stroke-linecap="square" stroke-linejoin="bevel" width="3" height="43"/><rect id="shape43" transform="matrix(-1 0 0 1 368 449)" fill="#77b3fe" fill-rule="evenodd" stroke-opacity="0" stroke="#000000" stroke-width="0" stroke-linecap="square" stroke-linejoin="bevel" width="24" height="2"/><path id="shape44" transform="matrix(-1 0 0 1 366.88848274139 449.948718003992)" fill="#829ee1" fill-rule="evenodd" stroke-opacity="0" stroke="#000000" stroke-width="0" stroke-linecap="square" stroke-linejoin="bevel" d="M0 0L22.981 0L27.7539 13.9654L0.53033 14.8492Z" sodipodi:nodetypes="ccccc"/><path id="shape45" transform="matrix(-1 0 0 1 366.004599274646 458.964329281415)" fill="#829ee1" fill-rule="evenodd" stroke-opacity="0" stroke="#000000" stroke-width="0" stroke-linecap="square" stroke-linejoin="bevel" d="M1.06066 32.1734C1.73279 23.4192 4.32551 16.8196 8.83883 12.3744C13.3522 7.92915 19.1858 5.2775 26.3397 4.41942L0 0C0 0 0.353553 10.7245 1.06066 32.1734Z" sodipodi:nodetypes="czccc"/><path id="shape46" transform="matrix(-1 0 0 1 346.812483565555 465.437519194909)" fill="#829ee1" fill-rule="evenodd" stroke-opacity="0" stroke="#000000" stroke-width="0" stroke-linecap="square" stroke-linejoin="bevel" d="M0 1.875L6.875 18.8125L7.875 0.1875L7.875 0.1875L4.75 0L2.3125 0.5Z" sodipodi:nodetypes="ccccccc"/><path id="shape47" transform="matrix(-1 0 0 1 336.7499831757 471.500019429791)" fill="#829ee1" fill-rule="evenodd" stroke-opacity="0" stroke="#000000" stroke-width="0" stroke-linecap="square" stroke-linejoin="bevel" d="M4.5 11.75L4.5 11.75L0.375 0L0 12.5625L3.375 12.75Z" sodipodi:nodetypes="cccccc"/><path id="shape48" transform="matrix(-1 0 0 1 355.499983902138 468.250019303875)" fill="#829ee1" fill-rule="evenodd" stroke-opacity="0" stroke="#000000" stroke-width="0" stroke-linecap="square" stroke-linejoin="bevel" d="M6.375 0L13.625 16.125L12.75 17.5625L11.5 17.5625L0 5.0625L2.8125 1.875L2.8125 1.875Z" sodipodi:nodetypes="cccccccc"/><path id="shape49" transform="matrix(-1 0 0 1 360.812484107962 474.875019560549)" fill="#829ee1" fill-rule="evenodd" stroke-opacity="0" stroke="#000000" stroke-width="0" stroke-linecap="square" stroke-linejoin="bevel" d="M13.9375 12.125L3.625 0L1.25 2.5L0 6.375L12.75 13.25Z" sodipodi:nodetypes="cccccc"/><path id="shape50" transform="matrix(-1 0 0 1 363.31248420482 483.187519882603)" fill="#829ee1" fill-rule="evenodd" stroke-opacity="0" stroke="#000000" stroke-width="0" stroke-linecap="square" stroke-linejoin="bevel" d="M14.75 6.5L1.375 0L0 3.1875L0 7.5625L13.875 7.75Z" sodipodi:nodetypes="cccccc"/><rect id="shape51" transform="matrix(-1 0 0 1 435 362)" fill="#829ee1" fill-rule="evenodd" stroke-opacity="0" stroke="#000000" stroke-width="0" stroke-linecap="square" stroke-linejoin="bevel" width="110" height="50.5968249732163"/><rect id="shape52" transform="matrix(-1 0 0 1 381.646446600226 363)" fill="#829ee1" fill-rule="evenodd" stroke-opacity="0" stroke="#000000" stroke-width="0" stroke-linecap="square" stroke-linejoin="bevel" width="7" height="49"/><path id="shape53" transform="matrix(-1 0 0 1 378.896430421468 372.625016627881)" fill="#829ee1" fill-rule="evenodd" stroke-opacity="0" stroke="#000000" stroke-width="0" stroke-linecap="square" stroke-linejoin="bevel" d="M5 38.875C4.70455 34.0777 5.45454 29.9527 7.24998 26.5C9.94315 21.321 14.9701 16.5074 17.375 15C19.7799 13.4926 26.2437 10.8004 30.875 10.75C33.9625 10.7164 39.9823 11.6434 44 13.625C46.6785 14.9461 50.0535 17.4877 54.125 21.25L54.125 6.5L7.24998 0L0 1.625L1.5 38.5C2.33333 38.6667 3.5 38.7917 5 38.875Z" sodipodi:nodetypes="czzzzcccccc"/><path id="shape54" transform="matrix(-1 0 0 1 337.323205397135 400.198241074033)" fill="#829ee1" fill-rule="evenodd" stroke-opacity="0" stroke="#000000" stroke-width="0" stroke-linecap="square" stroke-linejoin="bevel" d="M11.875 0L12 10.5L0.5 10.375L0 9.125Z" sodipodi:nodetypes="ccccc"/><path id="shape55" transform="matrix(-1 0 0 1 341.073205552005 391.823240728156)" fill="#829ee1" fill-rule="evenodd" stroke-opacity="0" stroke="#000000" stroke-width="0" stroke-linecap="square" stroke-linejoin="bevel" d="M1.875 15.875L14.625 5.5L13.125 1.5L10.625 0L0 14.5Z" sodipodi:nodetypes="cccccc"/><path id="shape56" transform="matrix(-1 0 0 1 343.948205670739 387.250017231874)" fill="#829ee1" fill-rule="evenodd" stroke-opacity="0" stroke="#000000" stroke-width="0" stroke-linecap="square" stroke-linejoin="bevel" d="M1.5 17.5L12.125 3.625L9 1.125L4.875 0L0 17.125Z" sodipodi:nodetypes="cccccc"/><path id="shape57" transform="matrix(-1 0 0 1 346.948205794635 385.125017144115)" fill="#829ee1" fill-rule="evenodd" stroke-opacity="0" stroke="#000000" stroke-width="0" stroke-linecap="square" stroke-linejoin="bevel" d="M0 17.75L0 0.75L2.875 0L6.125 1.625L1.625 18.25Z" sodipodi:nodetypes="cccccc"/><path id="shape58" transform="matrix(-1 0 0 1 356.448206186972 385.875017175089)" fill="#829ee1" fill-rule="evenodd" stroke-opacity="0" stroke="#000000" stroke-width="0" stroke-linecap="square" stroke-linejoin="bevel" d="M7.75 16L7.375 0L3 0L0 2.5L5.125 17.25L6.75 17Z" sodipodi:nodetypes="ccccccc"/><path id="shape59" transform="matrix(-1 0 0 1 364.02142980715 389.250017314472)" fill="#829ee1" fill-rule="evenodd" stroke-opacity="0" stroke="#000000" stroke-width="0" stroke-linecap="square" stroke-linejoin="bevel" d="M5.125 0L11.375 15L9 16.125L0 4.5L2.25 1.375Z" sodipodi:nodetypes="cccccc"/><path id="shape60" transform="matrix(-1 0 0 1 369.521430034293 394.875017546777)" fill="#829ee1" fill-rule="evenodd" stroke-opacity="0" stroke="#000000" stroke-width="0" stroke-linecap="square" stroke-linejoin="bevel" d="M3.5 0L12.75 11.25L11.875 13.375L0 5.875L1.125 2.125Z" sodipodi:nodetypes="cccccc"/><path id="shape61" transform="matrix(-1 0 0 1 371.646446600226 403.62501790814)" fill="#829ee1" fill-rule="evenodd" stroke-opacity="0" stroke="#000000" stroke-width="0" stroke-linecap="square" stroke-linejoin="bevel" d="M1.37502 0L0 3.75L0 7.75L12 7.875L12.5 5.75Z" sodipodi:nodetypes="cccccc"/><path id="shape0" transform="translate(200.592941782155, 350.826759046499)" fill="#ffea00" fill-rule="evenodd" stroke-opacity="0" stroke="#000000" stroke-width="0" stroke-linecap="square" stroke-linejoin="bevel" d="M27.5 0L10.5 57.375L56.25 22L0 21.875L48.125 56.125L27.5 0" sodipodi:nodetypes="cccccc"/><path id="shape1" transform="translate(216.717942233936, 370.201759589337)" fill="#ffea00" fill-rule="evenodd" stroke-opacity="0" stroke="#000000" stroke-width="0" stroke-linecap="square" stroke-linejoin="bevel" d="M9.25 0.25L1.375 5L0 11.625L4.75 24.75L11.625 23.75L22.5 24.125L24 18L25 5.125L15.125 0L9.25 0.25" sodipodi:nodetypes="cccccccccc"/><path id="shape62" transform="translate(349.021456698887, 214.02145358028)" fill="#ffea00" fill-rule="evenodd" stroke-opacity="0" stroke="#000000" stroke-width="0" stroke-linecap="square" stroke-linejoin="bevel" d="M27.5 0L10.5 57.375L56.25 22L0 21.875L48.125 56.125L27.5 0" sodipodi:nodetypes="cccccc"/><path id="shape63" transform="translate(365.146457150667, 233.396454123117)" fill="#ffea00" fill-rule="evenodd" stroke-opacity="0" stroke="#000000" stroke-width="0" stroke-linecap="square" stroke-linejoin="bevel" d="M9.25 0.25L1.375 5L0 11.625L4.75 24.75L11.625 23.75L22.5 24.125L24 18L25 5.125L15.125 0L9.25 0.25" sodipodi:nodetypes="cccccccccc"/><path id="shape01" transform="translate(493.946495180039, 351.180312444383)" fill="#ffea00" fill-rule="evenodd" stroke-opacity="0" stroke="#000000" stroke-width="0" stroke-linecap="square" stroke-linejoin="bevel" d="M27.5 0L10.5 57.375L56.25 22L0 21.875L48.125 56.125L27.5 0" sodipodi:nodetypes="cccccc"/><path id="shape111" transform="translate(510.07149563182, 370.555312987221)" fill="#ffea00" fill-rule="evenodd" stroke-opacity="0" stroke="#000000" stroke-width="0" stroke-linecap="square" stroke-linejoin="bevel" d="M9.25 0.25L1.375 5L0 11.625L4.75 24.75L11.625 23.75L22.5 24.125L24 18L25 5.125L15.125 0L9.25 0.25" sodipodi:nodetypes="cccccccccc"/><path id="shape02" transform="matrix(0.665356536274768 0 0 0.665356536274768 265.110848862027 272.766408188777)" fill="#ffea00" fill-rule="evenodd" stroke-opacity="0" stroke="#000000" stroke-width="0" stroke-linecap="square" stroke-linejoin="bevel" d="M27.5 0L10.5 57.375L56.25 22L0 21.875L48.125 56.125L27.5 0" sodipodi:nodetypes="cccccc"/><path id="shape121" transform="matrix(0.665356536274768 0 0 0.665356536274768 275.839723310054 285.657691440282)" fill="#ffea00" fill-rule="evenodd" stroke-opacity="0" stroke="#000000" stroke-width="0" stroke-linecap="square" stroke-linejoin="bevel" d="M9.25 0.25L1.375 5L0 11.625L4.75 24.75L11.625 23.75L22.5 24.125L24 18L25 5.125L15.125 0L9.25 0.25" sodipodi:nodetypes="cccccccccc"/><path id="shape03" transform="matrix(0.665356536274768 0 0 0.665356536274768 458.464402259911 272.119961567318)" fill="#ffea00" fill-rule="evenodd" stroke-opacity="0" stroke="#000000" stroke-width="0" stroke-linecap="square" stroke-linejoin="bevel" d="M27.5 0L10.5 57.375L56.25 22L0 21.875L48.125 56.125L27.5 0" sodipodi:nodetypes="cccccc"/><path id="shape131" transform="matrix(0.665356536274768 0 0 0.665356536274768 469.193276707937 285.011244818823)" fill="#ffea00" fill-rule="evenodd" stroke-opacity="0" stroke="#000000" stroke-width="0" stroke-linecap="square" stroke-linejoin="bevel" d="M9.25 0.25L1.375 5L0 11.625L4.75 24.75L11.625 23.75L22.5 24.125L24 18L25 5.125L15.125 0L9.25 0.25" sodipodi:nodetypes="cccccccccc"/><path id="shape04" transform="matrix(0.665356536274768 0 0 0.665356536274768 458.110848862027 272.766408188777)" fill="#ffea00" fill-rule="evenodd" stroke-opacity="0" stroke="#000000" stroke-width="0" stroke-linecap="square" stroke-linejoin="bevel" d="M27.5 0L10.5 57.375L56.25 22L0 21.875L48.125 56.125L27.5 0" sodipodi:nodetypes="cccccc"/><path id="shape141" transform="matrix(0.665356536274768 0 0 0.665356536274768 468.839723310054 285.657691440282)" fill="#ffea00" fill-rule="evenodd" stroke-opacity="0" stroke="#000000" stroke-width="0" stroke-linecap="square" stroke-linejoin="bevel" d="M9.25 0.25L1.375 5L0 11.625L4.75 24.75L11.625 23.75L22.5 24.125L24 18L25 5.125L15.125 0L9.25 0.25" sodipodi:nodetypes="cccccccccc"/><path id="shape6" transform="translate(292.388666883333, 527.823249478111)" fill="#829ee1" fill-rule="evenodd" stroke-opacity="0" stroke="#000000" stroke-width="0" stroke-linecap="square" stroke-linejoin="bevel" d="M24.7487 0.0319859L0 77.4602L175.716 76.3995L150.435 0" sodipodi:nodetypes="cccc"/><path id="shape05" transform="matrix(0.665356536274768 0 0 0.665356536274768 240.110848862027 454.119961586661)" fill="#ffea00" fill-rule="evenodd" stroke-opacity="0" stroke="#000000" stroke-width="0" stroke-linecap="square" stroke-linejoin="bevel" d="M27.5 0L10.5 57.375L56.25 22L0 21.875L48.125 56.125L27.5 0" sodipodi:nodetypes="cccccc"/><path id="shape151" transform="matrix(0.665356536274768 0 0 0.665356536274768 250.839723310054 466.657691440282)" fill="#ffea00" fill-rule="evenodd" stroke-opacity="0" stroke="#000000" stroke-width="0" stroke-linecap="square" stroke-linejoin="bevel" d="M9.25 0.25L1.375 5L0 11.625L4.75 24.75L11.625 23.75L22.5 24.125L24 18L25 5.125L15.125 0L9.25 0.25" sodipodi:nodetypes="cccccccccc"/><path id="shape06" transform="matrix(0.665356536274768 0 0 0.665356536274768 483.464402259911 454.119961586661)" fill="#ffea00" fill-rule="evenodd" stroke-opacity="0" stroke="#000000" stroke-width="0" stroke-linecap="square" stroke-linejoin="bevel" d="M27.5 0L10.5 57.375L56.25 22L0 21.875L48.125 56.125L27.5 0" sodipodi:nodetypes="cccccc"/><path id="shape161" transform="matrix(0.665356536274768 0 0 0.665356536274768 494.193276707937 467.011244838165)" fill="#ffea00" fill-rule="evenodd" stroke-opacity="0" stroke="#000000" stroke-width="0" stroke-linecap="square" stroke-linejoin="bevel" d="M9.25 0.25L1.375 5L0 11.625L4.75 24.75L11.625 23.75L22.5 24.125L24 18L25 5.125L15.125 0L9.25 0.25" sodipodi:nodetypes="cccccccccc"/><path id="shape441" transform="matrix(-0.99999999107055 0 0 0.99999999107055 429.567388468258 448.659272400181)" fill="#829ee1" fill-rule="evenodd" stroke-opacity="0" stroke="#000000" stroke-width="0" stroke-linecap="square" stroke-linejoin="bevel" d="M11.3137 0L86.267 0.353553L99.7021 43.4871L0 43.4871Z" sodipodi:nodetypes="ccccc"/><rect id="shape0" transform="translate(354.474873741031, 527)" fill="#222253" fill-rule="evenodd" width="16.3523815040694" height="85.5857864336969"/><rect id="shape01" transform="translate(365, 447.082990595936)" fill="#222253" fill-rule="evenodd" stroke-opacity="0" stroke="#000000" stroke-width="0" stroke-linecap="square" stroke-linejoin="bevel" width="30.4434689748888" height="78.9170094040635"/><circle id="shape1" transform="translate(390, 389)" r="26" cx="26" cy="26" fill="none" stroke="#222253" stroke-width="8" stroke-linecap="square" stroke-linejoin="bevel"/><circle id="shape02" transform="matrix(1.00000004537306 0 0 1.00000004537306 337.234924077025 416.375)" r="10.5764098683836" cx="10.5764098683836" cy="10.5764098683836" fill="#222253" stroke="#222253" stroke-width="6" stroke-linecap="square" stroke-linejoin="bevel"/><circle id="shape03" transform="matrix(1.0000000284265 0 0 1.0000000284265 400.033588111935 421.048656124847)" r="10.5764098683836" cx="10.5764098683836" cy="10.5764098683836" fill="#222253" stroke="#222253" stroke-width="6" stroke-linecap="square" stroke-linejoin="bevel"/><rect id="shape04" transform="matrix(1.00000000239125 0 0 1.00000000239125 389.110114374811 525.558579924022)" fill="#222253" fill-rule="evenodd" stroke-opacity="0" stroke="#000000" stroke-width="0" stroke-linecap="square" stroke-linejoin="bevel" width="16.3523815040694" height="85.5857864336969"/><circle id="shape05" transform="matrix(1.00000001764871 0 0 1.00000001764871 397.133387871813 470.133387854165)" r="26" cx="26" cy="26" fill="none" stroke="#222253" stroke-width="6" stroke-linecap="square" stroke-linejoin="bevel"/><circle id="shape06" transform="matrix(1.00000001797463 0 0 1.00000001797463 318.19451506083 389.194515051843)" r="26" cx="26" cy="26" fill="none" stroke="#222253" stroke-width="8" stroke-linecap="square" stroke-linejoin="bevel"/><circle id="shape07" transform="matrix(1.00000004082075 0 0 1.00000004082075 311.549264585282 470.96347899999)" r="26" cx="26" cy="26" fill="none" stroke="#222253" stroke-width="6" stroke-linecap="square" stroke-linejoin="bevel"/>
</svg>
